<svg width="64" height="64" viewBox="0 0 64 64" fill="none" xmlns="http://www.w3.org/2000/svg">
  <rect width="64" height="64" rx="16" fill="#030604"/>
  <path d="M18 16H34C40.6274 16 46 21.3726 46 28C46 31.6033 44.4124 34.8351 41.914 37.0371C45.6441 38.6534 48 42.4172 48 46.5C48 53.4036 42.4036 59 35.5 59H18V16ZM26 33.5H32.5C35.5376 33.5 38 31.0376 38 28C38 24.9624 35.5376 22.5 32.5 22.5H26V33.5ZM26 40V52.5H34.5C37.5376 52.5 40 50.0376 40 47C40 43.9624 37.5376 41.5 34.5 41.5H26V40Z" fill="#38e11c"/>
</svg>